<svg width="24" height="22" viewBox="0 0 24 22" fill="none" xmlns="http://www.w3.org/2000/svg">
<path d="M12.0579 0.652588C5.83546 0.652588 0.817383 4.66701 0.817383 9.54057C0.817383 12.704 2.9049 15.4739 6.03619 17.0556L4.97637 21.0139C4.95639 21.0733 4.95331 21.1369 4.96749 21.1979C4.98167 21.2589 5.01255 21.3147 5.05666 21.3591C5.12098 21.4158 5.20373 21.4472 5.28949 21.4474C5.3606 21.4417 5.42807 21.4136 5.48219 21.3672L10.0426 18.2921C10.7158 18.385 11.3944 18.4333 12.0739 18.4366C18.2883 18.4366 23.3144 14.4222 23.3144 9.54057C23.3144 4.65898 18.2723 0.652588 12.0579 0.652588Z" fill="#392020"/>
<path d="M4.75129 8.13548H3.52287C3.37061 8.13989 3.22024 8.1009 3.08931 8.02306C3.03118 7.98664 2.9812 7.93857 2.94251 7.88193C2.90383 7.82528 2.87727 7.76124 2.8645 7.69385C2.8606 7.65111 2.8606 7.60819 2.8645 7.56545C2.86068 7.4855 2.8762 7.40575 2.90975 7.33307C2.94329 7.26039 2.99387 7.1969 3.05719 7.14793C3.19717 7.04656 3.36611 6.99301 3.53892 6.99533H7.24026C7.39373 6.98994 7.54513 7.03202 7.67382 7.11579C7.73333 7.1506 7.78436 7.19823 7.82323 7.25516C7.86211 7.31208 7.88786 7.37691 7.89863 7.445C7.90255 7.48505 7.90255 7.52541 7.89863 7.56545C7.90242 7.64656 7.88693 7.7274 7.85344 7.80136C7.81994 7.87533 7.7694 7.94025 7.70594 7.99091C7.56937 8.09216 7.40206 8.14325 7.23223 8.13548H6.04395V12.3587C6.04878 12.4487 6.03485 12.5386 6.00306 12.6229C5.97128 12.7072 5.92231 12.7841 5.85928 12.8485C5.79885 12.91 5.72619 12.9583 5.64599 12.9901C5.56579 13.0219 5.47981 13.0365 5.39361 13.0331C5.24282 13.0374 5.09523 12.9892 4.9761 12.8967C4.86269 12.8063 4.78572 12.6779 4.75933 12.5353C4.75139 12.4767 4.75139 12.4173 4.75933 12.3587L4.75129 8.13548Z" fill="#FEE500"/>
<path d="M8.25294 7.30852C8.28825 7.1764 8.37119 7.06199 8.48578 6.98734C8.60788 6.91814 8.74702 6.88475 8.88723 6.891H9.19232C9.3411 6.88567 9.48843 6.92181 9.61786 6.99538C9.75501 7.08761 9.85246 7.22803 9.89084 7.38879L11.4966 11.9252C11.5383 12.0435 11.5731 12.1642 11.601 12.2865C11.6037 12.3373 11.6037 12.3882 11.601 12.439C11.6037 12.5173 11.5893 12.5952 11.5588 12.6673C11.5283 12.7394 11.4824 12.804 11.4244 12.8565C11.3681 12.9142 11.3006 12.9596 11.226 12.99C11.1514 13.0204 11.0713 13.0351 10.9908 13.0331C10.867 13.0455 10.7426 13.0158 10.6377 12.9488C10.5329 12.8818 10.4536 12.7814 10.4127 12.6638L10.0755 11.6763H7.9639L7.62669 12.6638C7.5868 12.7837 7.50658 12.886 7.39971 12.9534C7.29283 13.0207 7.16591 13.0489 7.04057 13.0331C6.9048 13.0367 6.77182 12.9942 6.66321 12.9127C6.5574 12.8285 6.48601 12.7087 6.46249 12.5755C6.45823 12.5301 6.45823 12.4844 6.46249 12.439C6.4487 12.3593 6.4487 12.2779 6.46249 12.1982C6.46249 12.1099 6.51869 12.0135 6.55081 11.9252L8.25294 7.30852ZM9.05583 8.36036L8.29308 10.769H9.81055L9.05583 8.36036Z" fill="#FEE500"/>
<path d="M11.7849 7.56555C11.7767 7.38537 11.8402 7.2093 11.9615 7.0758C12.0232 7.01361 12.0972 6.965 12.1788 6.93319C12.2604 6.90139 12.3477 6.887 12.4352 6.89105C12.5856 6.88929 12.7324 6.93731 12.8527 7.02758C12.9642 7.12176 13.0383 7.25276 13.0615 7.39688C13.0694 7.4528 13.0694 7.50963 13.0615 7.56555V11.7888H15.2694C15.4225 11.7868 15.5729 11.8285 15.703 11.9091C15.7614 11.9452 15.8117 11.9932 15.8504 12.0499C15.8891 12.1066 15.9155 12.1708 15.9278 12.2383C15.9278 12.2383 15.9278 12.3187 15.9278 12.3588C15.9316 12.4388 15.9161 12.5184 15.8826 12.5911C15.849 12.6638 15.7984 12.7273 15.7351 12.7763C15.5951 12.8777 15.4262 12.9311 15.2534 12.9288H12.5396C12.3668 12.9399 12.195 12.895 12.0498 12.8004C11.92 12.7034 11.8335 12.5592 11.809 12.399C11.8031 12.3108 11.8031 12.2222 11.809 12.134L11.7849 7.56555Z" fill="#FEE500"/>
<path d="M16.0724 7.56559C16.0676 7.38593 16.1307 7.21107 16.2491 7.07584C16.3694 6.96649 16.5238 6.90192 16.6861 6.89315C16.8485 6.88437 17.0089 6.93188 17.1403 7.02762C17.2542 7.12097 17.3311 7.25191 17.3571 7.39692C17.361 7.45305 17.361 7.50946 17.3571 7.56559V9.53264L19.3884 7.18816C19.4666 7.10817 19.5498 7.03317 19.6373 6.96342C19.7197 6.91431 19.8143 6.88921 19.9103 6.89109C20.0506 6.89032 20.1878 6.93235 20.3037 7.01154C20.3583 7.0483 20.4049 7.09573 20.4408 7.15091C20.4766 7.20609 20.501 7.26791 20.5124 7.33272C20.5157 7.34861 20.5157 7.36505 20.5124 7.38094C20.5085 7.39947 20.5085 7.41857 20.5124 7.4371C20.5122 7.52159 20.49 7.6046 20.4482 7.67801C20.4056 7.75573 20.3544 7.82836 20.2957 7.89471L18.9628 9.35603L20.5686 11.845V11.9252C20.652 12.0403 20.717 12.1677 20.7613 12.3027V12.3428C20.7706 12.4358 20.7572 12.5297 20.7222 12.6164C20.6873 12.7031 20.6318 12.78 20.5606 12.8406C20.4267 12.9418 20.2628 12.9955 20.0949 12.9932C19.9834 12.9977 19.8726 12.9728 19.7738 12.9208C19.6668 12.8491 19.5787 12.7527 19.5168 12.6398L18.0235 10.2312L17.3089 10.9779V12.3187C17.3137 12.4983 17.2506 12.6732 17.1323 12.8084C17.0688 12.8704 16.9933 12.9189 16.9105 12.9506C16.8276 12.9824 16.7392 12.9969 16.6505 12.9932C16.5024 12.9963 16.3577 12.948 16.241 12.8566C16.1276 12.7662 16.0507 12.638 16.0243 12.4954C16.0163 12.4368 16.0163 12.3773 16.0243 12.3187L16.0724 7.56559Z" fill="#FEE500"/>
</svg>
