<svg width="107" height="18" viewBox="0 0 107 18" fill="none" xmlns="http://www.w3.org/2000/svg">
<g clip-path="url(#clip0_2609_20310)">
<path d="M10.9717 9.49186L16.6512 9.49186L16.6519 13.3855H18.6692L18.6685 9.49186H24.2592V0L10.9717 0L10.9717 9.49186ZM13.0057 1.79501L22.2196 1.79501V7.70241L13.0057 7.70241L13.0057 1.79501Z" fill="#999999"/>
<path d="M10.9717 9.49186L16.6512 9.49186L16.6519 13.3855H18.6692L18.6685 9.49186H24.2592V0L10.9717 0L10.9717 9.49186ZM13.0057 1.79501L22.2196 1.79501V7.70241L13.0057 7.70241L13.0057 1.79501Z" fill="black" fill-opacity="0.2"/>
<path d="M36.5407 12.4707H34.5234V18.317H36.5407V12.4707Z" fill="#999999"/>
<path d="M36.5407 12.4707H34.5234V18.317H36.5407V12.4707Z" fill="black" fill-opacity="0.2"/>
<path d="M30.951 1.77833L42.2045 1.77833V0L28.917 0V9.49186L42.3879 9.49186V7.73575L30.951 7.73575V1.77833Z" fill="#999999"/>
<path d="M30.951 1.77833L42.2045 1.77833V0L28.917 0V9.49186L42.3879 9.49186V7.73575L30.951 7.73575V1.77833Z" fill="black" fill-opacity="0.2"/>
<path d="M54.2964 1.05056C53.5295 0.3948 52.4458 0.0224609 51.251 0.0224609C50.0562 0.0224609 48.9725 0.3948 48.2056 1.05056C47.1608 1.96751 46.6162 3.4402 46.6162 5.313C46.6162 7.18581 47.1608 8.64182 48.2056 9.57545C48.9725 10.2312 50.0562 10.6035 51.251 10.6035C52.4458 10.6035 53.5295 10.2312 54.2964 9.57545C55.3801 8.64182 55.8858 7.18581 55.8858 5.313C55.8858 3.4402 55.3801 1.96751 54.2964 1.05056ZM52.9515 8.20836C52.557 8.61959 51.9623 8.82521 51.251 8.82521C50.5397 8.82521 49.9784 8.61959 49.5505 8.20836C48.9169 7.60817 48.6557 6.58007 48.6557 5.313C48.6557 4.04594 48.9169 2.99561 49.5505 2.39543C49.9784 1.98419 50.5619 1.79524 51.251 1.79524C51.9401 1.79524 52.557 1.98419 52.9515 2.39543C53.5851 2.99561 53.8685 4.05706 53.8685 5.313C53.8685 6.56895 53.5906 7.61372 52.9515 8.20836Z" fill="#999999"/>
<path d="M54.2964 1.05056C53.5295 0.3948 52.4458 0.0224609 51.251 0.0224609C50.0562 0.0224609 48.9725 0.3948 48.2056 1.05056C47.1608 1.96751 46.6162 3.4402 46.6162 5.313C46.6162 7.18581 47.1608 8.64182 48.2056 9.57545C48.9725 10.2312 50.0562 10.6035 51.251 10.6035C52.4458 10.6035 53.5295 10.2312 54.2964 9.57545C55.3801 8.64182 55.8858 7.18581 55.8858 5.313C55.8858 3.4402 55.3801 1.96751 54.2964 1.05056ZM52.9515 8.20836C52.557 8.61959 51.9623 8.82521 51.251 8.82521C50.5397 8.82521 49.9784 8.61959 49.5505 8.20836C48.9169 7.60817 48.6557 6.58007 48.6557 5.313C48.6557 4.04594 48.9169 2.99561 49.5505 2.39543C49.9784 1.98419 50.5619 1.79524 51.251 1.79524C51.9401 1.79524 52.557 1.98419 52.9515 2.39543C53.5851 2.99561 53.8685 4.05706 53.8685 5.313C53.8685 6.56895 53.5906 7.61372 52.9515 8.20836Z" fill="black" fill-opacity="0.2"/>
<path d="M60.0923 0.0112305L58.0527 0.0112305V18.317H60.0923V0.0112305Z" fill="#999999"/>
<path d="M60.0923 0.0112305L58.0527 0.0112305V18.317H60.0923V0.0112305Z" fill="black" fill-opacity="0.2"/>
<path d="M68.6001 8.7865C69.7783 8.7865 70.7841 8.44751 71.5344 7.83065C72.4847 7.10264 73.046 5.94117 73.046 4.39068C73.046 2.8402 72.4847 1.70095 71.5344 0.950715C70.7841 0.350528 69.7783 0.0170898 68.6001 0.0170898C67.422 0.0170898 66.4328 0.350528 65.6659 0.950715C64.7323 1.70095 64.1543 2.85687 64.1543 4.39068C64.1543 5.92449 64.7323 7.10264 65.6659 7.83065C66.4328 8.44751 67.4387 8.7865 68.6001 8.7865ZM66.9552 2.35671C67.3664 1.98437 67.9444 1.77875 68.6001 1.77875C69.2559 1.77875 69.8339 1.98437 70.2618 2.35671C70.7842 2.82352 71.0676 3.51263 71.0676 4.39624C71.0676 5.27985 70.7897 6.0023 70.2618 6.43577C69.8339 6.83033 69.2503 7.03595 68.6001 7.03595C67.9499 7.03595 67.3664 6.83033 66.9552 6.43577C66.4328 6.00785 66.1327 5.27985 66.1327 4.39624C66.1327 3.51263 66.4328 2.82352 66.9552 2.35671Z" fill="#999999"/>
<path d="M68.6001 8.7865C69.7783 8.7865 70.7841 8.44751 71.5344 7.83065C72.4847 7.10264 73.046 5.94117 73.046 4.39068C73.046 2.8402 72.4847 1.70095 71.5344 0.950715C70.7841 0.350528 69.7783 0.0170898 68.6001 0.0170898C67.422 0.0170898 66.4328 0.350528 65.6659 0.950715C64.7323 1.70095 64.1543 2.85687 64.1543 4.39068C64.1543 5.92449 64.7323 7.10264 65.6659 7.83065C66.4328 8.44751 67.4387 8.7865 68.6001 8.7865ZM66.9552 2.35671C67.3664 1.98437 67.9444 1.77875 68.6001 1.77875C69.2559 1.77875 69.8339 1.98437 70.2618 2.35671C70.7842 2.82352 71.0676 3.51263 71.0676 4.39624C71.0676 5.27985 70.7897 6.0023 70.2618 6.43577C69.8339 6.83033 69.2503 7.03595 68.6001 7.03595C67.9499 7.03595 67.3664 6.83033 66.9552 6.43577C66.4328 6.00785 66.1327 5.27985 66.1327 4.39624C66.1327 3.51263 66.4328 2.82352 66.9552 2.35671Z" fill="black" fill-opacity="0.2"/>
<path d="M93.9812 0.0112305V2.78988L90.5801 2.78988V0.0112305L88.5962 0.0112305V2.78988L84.3004 2.78988V0.0112305L82.3164 0.0112305V8.35829L90.5801 8.35829V4.52375L93.9812 4.52375V16.5998L85.384 16.5998V9.75872H83.3445V18.317L96.0151 18.317V0.0112305L93.9756 0.0112305H93.9812ZM88.6017 6.59662L84.3059 6.59662V4.52375L88.6017 4.52375V6.59662Z" fill="#999999"/>
<path d="M93.9812 0.0112305V2.78988L90.5801 2.78988V0.0112305L88.5962 0.0112305V2.78988L84.3004 2.78988V0.0112305L82.3164 0.0112305V8.35829L90.5801 8.35829V4.52375L93.9812 4.52375V16.5998L85.384 16.5998V9.75872H83.3445V18.317L96.0151 18.317V0.0112305L93.9756 0.0112305H93.9812ZM88.6017 6.59662L84.3059 6.59662V4.52375L88.6017 4.52375V6.59662Z" fill="black" fill-opacity="0.2"/>
<path d="M76.0253 2.78988V4.5182V9.75872V16.5942H67.4282V9.75872H65.3887V18.317L78.0593 18.317V9.75872V0.0112305L76.0253 0.0112305V2.78988Z" fill="#999999"/>
<path d="M76.0253 2.78988V4.5182V9.75872V16.5942H67.4282V9.75872H65.3887V18.317L78.0593 18.317V9.75872V0.0112305L76.0253 0.0112305V2.78988Z" fill="black" fill-opacity="0.2"/>
<path d="M106.732 12.3994V13.6675L0 13.6675L0 12.3994L106.732 12.3994Z" fill="url(#paint0_linear_2609_20310)"/>
</g>
<defs>
<linearGradient id="paint0_linear_2609_20310" x1="1.3096e-09" y1="13.0335" x2="106.732" y2="13.0335" gradientUnits="userSpaceOnUse">
<stop stop-color="#FBEB59" stop-opacity="0"/>
<stop offset="0.0001" stop-color="#FBEB59"/>
<stop offset="0.31" stop-color="#FC56D8"/>
<stop offset="0.65" stop-color="#10D9EF"/>
<stop offset="0.9999" stop-color="#6CF880"/>
<stop offset="1" stop-color="#6CF880" stop-opacity="0"/>
</linearGradient>
<clipPath id="clip0_2609_20310">
<rect width="106.725" height="18" fill="white"/>
</clipPath>
</defs>
</svg>
