<svg width="107" height="18" viewBox="0 0 107 18" fill="none" xmlns="http://www.w3.org/2000/svg">
<g clip-path="url(#clip0_1639_152)">
<path d="M10.9717 9.49186L16.6512 9.49186L16.6519 13.3855H18.6692L18.6685 9.49186H24.2592V0L10.9717 0L10.9717 9.49186ZM13.0057 1.79501L22.2196 1.79501V7.70241L13.0057 7.70241L13.0057 1.79501Z" fill="black"/>
<path d="M36.5405 12.4709H34.5232V18.3172H36.5405V12.4709Z" fill="black"/>
<path d="M30.9505 1.77833L42.204 1.77833V0L28.9165 0V9.49186L42.3874 9.49186V7.73575L30.9505 7.73575V1.77833Z" fill="black"/>
<path d="M54.2964 1.05056C53.5295 0.3948 52.4458 0.0224609 51.251 0.0224609C50.0562 0.0224609 48.9725 0.3948 48.2056 1.05056C47.1608 1.96751 46.6162 3.4402 46.6162 5.313C46.6162 7.18581 47.1608 8.64182 48.2056 9.57545C48.9725 10.2312 50.0562 10.6035 51.251 10.6035C52.4458 10.6035 53.5295 10.2312 54.2964 9.57545C55.3801 8.64182 55.8858 7.18581 55.8858 5.313C55.8858 3.4402 55.3801 1.96751 54.2964 1.05056ZM52.9515 8.20835C52.557 8.61959 51.9623 8.82521 51.251 8.82521C50.5397 8.82521 49.9784 8.61959 49.5505 8.20835C48.9169 7.60817 48.6557 6.58007 48.6557 5.313C48.6557 4.04594 48.9169 2.99561 49.5505 2.39543C49.9784 1.98419 50.5619 1.79524 51.251 1.79524C51.9401 1.79524 52.557 1.98419 52.9515 2.39543C53.5851 2.99561 53.8685 4.05706 53.8685 5.313C53.8685 6.56895 53.5906 7.61372 52.9515 8.20835Z" fill="black"/>
<path d="M60.0925 0.0112305L58.053 0.0112305V18.317H60.0925V0.0112305Z" fill="black"/>
<path d="M68.6004 8.78626C69.7785 8.78626 70.7844 8.44726 71.5346 7.8304C72.4849 7.1024 73.0462 5.94092 73.0462 4.39044C73.0462 2.83995 72.4849 1.70071 71.5346 0.950471C70.7844 0.350283 69.7785 0.0168457 68.6004 0.0168457C67.4222 0.0168457 66.433 0.350283 65.6661 0.950471C64.7325 1.70071 64.1545 2.85662 64.1545 4.39044C64.1545 5.92425 64.7325 7.1024 65.6661 7.8304C66.433 8.44726 67.4389 8.78626 68.6004 8.78626ZM66.9554 2.35647C67.3667 1.98413 67.9446 1.77851 68.6004 1.77851C69.2561 1.77851 69.8341 1.98413 70.262 2.35647C70.7844 2.82328 71.0678 3.51238 71.0678 4.39599C71.0678 5.2796 70.79 6.00205 70.262 6.43552C69.8341 6.83009 69.2506 7.03571 68.6004 7.03571C67.9502 7.03571 67.3667 6.83009 66.9554 6.43552C66.433 6.00761 66.1329 5.2796 66.1329 4.39599C66.1329 3.51238 66.433 2.82328 66.9554 2.35647Z" fill="black"/>
<path d="M93.9809 0.0112305V2.78988L90.5799 2.78988V0.0112305L88.5959 0.0112305V2.78988L84.3001 2.78988V0.0112305L82.3162 0.0112305V8.35829L90.5799 8.35829V4.52375L93.9809 4.52375V16.5998L85.3838 16.5998V9.75872H83.3443V18.317L96.0149 18.317V0.0112305L93.9754 0.0112305H93.9809ZM88.6015 6.59662L84.3057 6.59662V4.52375L88.6015 4.52375V6.59662Z" fill="black"/>
<path d="M76.0248 2.78988V4.5182V9.75872V16.5942H67.4277V9.75872H65.3882V18.317L78.0588 18.317V9.75872V0.0112305L76.0248 0.0112305V2.78988Z" fill="black"/>
<path d="M106.732 12.3992V13.6673L0 13.6673L0 12.3992L106.732 12.3992Z" fill="url(#paint0_linear_1639_152)"/>
</g>
<defs>
<linearGradient id="paint0_linear_1639_152" x1="1.3096e-09" y1="13.0332" x2="106.732" y2="13.0332" gradientUnits="userSpaceOnUse">
<stop stop-color="#FBEB59" stop-opacity="0"/>
<stop offset="0.0001" stop-color="#FBEB59"/>
<stop offset="0.31" stop-color="#FC56D8"/>
<stop offset="0.65" stop-color="#10D9EF"/>
<stop offset="0.9999" stop-color="#6CF880"/>
<stop offset="1" stop-color="#6CF880" stop-opacity="0"/>
</linearGradient>
<clipPath id="clip0_1639_152">
<rect width="106.725" height="18" fill="white"/>
</clipPath>
</defs>
</svg>
